inDegrees=yes
name=ik_S57_A08_T01
DataType=double
version=3
OpenSimVersion=4.3-2021-08-27-4bc7ad9
endheader
time	pelvis_tilt	pelvis_list	pelvis_rotation	pelvis_tx	pelvis_ty	pelvis_tz	hip_flexion_r	hip_adduction_r	hip_rotation_r	knee_angle_r	knee_angle_r_beta	ankle_angle_r	subtalar_angle_r	mtp_angle_r	hip_flexion_l	hip_adduction_l	hip_rotation_l	knee_angle_l	knee_angle_l_beta	ankle_angle_l	subtalar_angle_l	mtp_angle_l	lumbar_extension	lumbar_bending	lumbar_rotation	arm_flex_r	arm_add_r	arm_rot_r	elbow_flex_r	pro_sup_r	wrist_flex_r	wrist_dev_r	arm_flex_l	arm_add_l	arm_rot_l	elbow_flex_l	pro_sup_l	wrist_flex_l	wrist_dev_l
18.4199999999997	-6.425413124533601	-4.355405703810657	29.11548483549506	0	0.9399999999999999	0	37.25917087902693	-10.20612402454829	-9.882363048990774	42.82270783968431	0.7473972464220793	0	0	0	37.25917087902693	-10.20612402454829	-9.882363048990774	42.82270783968431	0.7473972464220793	0	0	0	-7.353671636692334	-2.438845804649743	-3.653879042729654	20.04897327562541	-0.4510303453463257	2.792635198351076	45.73740550205196	131.5853122204749	0	0	18.18627990103032	-15.71752273793082	9.576744040588155	81.02814782787753	127.650293055467	0	0
18.4399999999997	-6.425937106317695	-4.335613267088554	29.28926777964245	0	0.9399999999999999	0	37.26298078329384	-10.20577408740973	-9.88249124397206	42.82682804760118	0.7474691576160954	0	0	0	37.26298078329384	-10.20577408740973	-9.88249124397206	42.82682804760118	0.7474691576160954	0	0	0	-7.353562020099948	-2.402919953856153	-3.810414599521305	20.04192768640742	-0.4686028002422417	2.769044651748432	45.75343168049926	131.6486255079935	0	0	14.74741534001399	-14.85060681715555	8.571183287947196	78.95603066506263	130.2926019967789	0	0
18.4599999999997	-6.388419153229789	-4.336774481746581	29.5229588399501	0	0.9399999999999999	0	37.26646730207457	-10.20545425172301	-9.882608484576899	42.83059930464893	0.7475349784685178	0	0	0	37.26646730207457	-10.20545425172301	-9.882608484576899	42.83059930464893	0.7475349784685178	0	0	0	-7.320847562229864	-2.421772974328158	-3.816688104604494	19.94412669470328	-0.4891007328800208	2.509403177909417	45.80579076535112	131.6721054378125	0	0	13.61301831072259	-14.44712032959708	8.299554405826353	78.25325123521618	131.2909026479755	0	0
18.47999999999969	-6.361510305662444	-4.343797247066145	29.74430980843243	0	0.9399999999999999	0	37.27083796855251	-10.20505517615218	-9.882755035405943	42.83534269000747	0.747617766160715	0	0	0	37.27083796855251	-10.20505517615218	-9.882755035405943	42.83534269000747	0.747617766160715	0	0	0	-7.307353495419484	-2.426716387043778	-3.906302567968679	19.87893888188658	-0.5088893809195472	2.487364988574553	45.86588770024041	131.5998742537681	0	0	12.79455450937055	-14.02191531582428	8.279489364527246	74.04432478168916	132.8774530956372	0	0
18.49999999999969	-6.340594886077924	-4.338071268731504	29.92322857735041	0	0.9399999999999999	0	37.27492624810516	-10.2046842113178	-9.882891584733288	42.83980054718869	0.7476955704461111	0	0	0	37.27492624810516	-10.2046842113178	-9.882891584733288	42.83980054718869	0.7476955704461111	0	0	0	-7.296143958085118	-2.407870480747795	-4.037684834859097	19.83658994252553	-0.5424628528146301	2.544274853430462	45.91231261895528	131.5592793452296	0	0	12.2358866627676	-13.42028069520445	8.204156198184643	68.81653128895269	134.5061521662871	0	0
18.51999999999969	-6.327076469221396	-4.337459762398395	29.99179668431592	0	0.9399999999999999	0	37.28856296760205	-10.20345883228775	-9.883343554181863	42.85454034271721	0.7479528284091544	0	0	0	37.28856296760205	-10.20345883228775	-9.883343554181863	42.85454034271721	0.7479528284091544	0	0	0	-7.282364928053124	-2.417133137500713	-4.001253417814971	19.81882120495052	-0.5625980867879301	2.477851999110392	45.89705895243549	131.5510353115029	0	0	12.23247830702896	-13.41689955206473	8.309528654075288	68.81783787059601	134.5179192850818	0	0
18.53999999999969	-6.30051230869783	-4.346014152037988	30.21547179387113	0	0.9399999999999999	0	37.2923004357225	-10.20312159886718	-9.883468039635702	42.85861883701975	0.7480240115632577	0	0	0	37.2923004357225	-10.20312159886718	-9.883468039635702	42.85861883701975	0.7480240115632577	0	0	0	-7.271503139763406	-2.416818319587877	-4.145505381888071	19.79298489586944	-0.5511487608826908	2.409253969109514	45.9043704156402	131.5781935958035	0	0	11.9244340822307	-12.80405687515809	8.134251507583734	65.20974498344819	135.1734175686157	0	0
18.55999999999969	-6.239591611604838	-4.335698487436849	30.30290990847105	0	0.9399999999999999	0	37.2941072134243	-10.20296333632635	-9.883527071217895	42.86064197074069	0.7480593219078961	0	0	0	37.2941072134243	-10.20296333632635	-9.883527071217895	42.86064197074069	0.7480593219078961	0	0	0	-7.217377600232139	-2.428509244282345	-4.210219048019876	19.69522238891539	-0.528069664017821	2.404005798258405	45.87593641975349	131.5749251818154	0	0	11.77767213288782	-12.83635881754432	8.138428642362456	64.47266542815264	134.8106274501377	0	0
18.57999999999969	-6.181993151485665	-4.331546734012454	30.48116066337025	0	0.9399999999999999	0	37.29766041149898	-10.20264133944658	-9.883645789454022	42.86449869308587	0.7481266344111548	0	0	0	37.29766041149898	-10.20264133944658	-9.883645789454022	42.86449869308587	0.7481266344111548	0	0	0	-7.171155527600017	-2.435268977547153	-4.329930843169699	19.60526003809056	-0.4990458893574973	2.321203475340013	45.90308440104244	131.6065556173729	0	0	11.73746789569421	-11.6470859045358	7.793037038829159	61.72153341835113	134.0948983178738	0	0
18.59999999999969	-6.145751890434211	-4.308865159618506	30.53112732401297	0	0.9399999999999999	0	37.30179181681633	-10.20226825644932	-9.883783532811208	42.86899367247086	0.7482050866012321	0	0	0	37.30179181681633	-10.20226825644932	-9.883783532811208	42.86899367247086	0.7482050866012321	0	0	0	-7.1353886570801	-2.415649981943968	-4.438804015169914	19.54499495987675	-0.4819972651496819	2.332190305242582	45.8705631021931	131.6186202858856	0	0	11.89952950144442	-11.13216916822273	7.533955780942552	60.15032169016855	133.468752073483	0	0
18.61999999999969	-6.146474410091073	-4.313370676560765	30.59143516054117	0	0.9399999999999999	0	37.30560301841114	-10.20192452087616	-9.883910522774823	42.87314075406177	0.7482774668293423	0	0	0	37.30560301841114	-10.20192452087616	-9.883910522774823	42.87314075406177	0.7482774668293423	0	0	0	-7.141973762342777	-2.408935864096201	-4.496724890676076	19.59883165805948	-0.4761235383516468	2.284147484946152	45.84030738041105	131.6517622247235	0	0	12.09822148931459	-10.62013232376403	7.373266901257233	58.79718522771633	133.3866132991544	0	0
18.63999999999969	-6.1336684292597	-4.300849836832692	30.52141994250777	0	0.9399999999999999	0	37.30887320607162	-10.20162892721607	-9.884019663152007	42.87668895769138	0.7483393946652102	0	0	0	37.30887320607162	-10.20162892721607	-9.884019663152007	42.87668895769138	0.7483393946652102	0	0	0	-7.125809594636353	-2.402132028793896	-4.509300191135022	19.6057349795387	-0.4522441677916205	2.346151283469652	45.77742353361771	131.6676041018486	0	0	12.17253500077488	-10.06803471019075	7.230979826523222	58.52722319521062	133.8183488839655	0	0
18.65999999999969	-6.113169024101731	-4.263315977104063	30.26471151583221	0	0.9399999999999999	0	37.31325182215804	-10.20123609186143	-9.8841651124665	42.8814674243656	0.7484227946418721	0	0	0	37.31325182215804	-10.20123609186143	-9.8841651124665	42.8814674243656	0.7484227946418721	0	0	0	-7.088985037403133	-2.381032099747414	-4.49504526937275	19.59775946134381	-0.4564004048213116	2.58267447860064	45.74582261461608	131.6785991818629	0	0	12.15741303823825	-9.6668076868452	7.070945811141893	56.87126934732215	133.4889495550317	0	0
18.67999999999969	-6.111578922836539	-4.242679612655927	30.12779299930996	0	0.9399999999999999	0	37.31520654414199	-10.20106145935454	-9.884229877402205	42.8836068813106	0.7484601352097671	0	0	0	37.31520654414199	-10.20106145935454	-9.884229877402205	42.8836068813106	0.7484601352097671	0	0	0	-7.075561229257542	-2.367643170665225	-4.470550806411965	19.5806585852319	-0.44533922110348	2.709433286403415	45.70842010503142	131.6755432439737	0	0	12.2052287750326	-9.439508417433689	7.18772777068844	55.92307143590211	133.3325089701443	0	0
18.69999999999969	-6.130764408961351	-4.262369390051425	30.04317792192963	0	0.9399999999999999	0	37.3176821183208	-10.20083870058084	-9.884312294723824	42.88629747211238	0.7485070948780821	0	0	0	37.3176821183208	-10.20083870058084	-9.884312294723824	42.88629747211238	0.7485070948780821	0	0	0	-7.097182592197012	-2.386844609015625	-4.394292294815639	19.64986668949451	-0.4072704120963675	2.677889340300033	45.69078983822191	131.6770847968941	0	0	12.36370063254779	-9.309387193009249	7.54526218416491	54.79773453929501	133.3453057690781	0	0
18.71999999999969	-6.177199025025384	-4.27122133671266	29.89360030558231	0	0.9399999999999999	0	37.32014718458714	-10.20061682319727	-9.884394387817549	42.88897434505397	0.7485538151245704	0	0	0	37.32014718458714	-10.20061682319727	-9.884394387817549	42.88897434505397	0.7485538151245704	0	0	0	-7.140317677610835	-2.374868473986638	-4.365908045494573	19.7546627644403	-0.4165298131055095	2.800425046652364	45.67700905356138	131.6925274965377	0	0	12.52414110075511	-9.15273086812825	7.82256713136297	53.6064764922068	133.1381599902937	0	0
18.73999999999969	-6.231740037216537	-4.267150060367819	29.76977767563526	0	0.9399999999999999	0	37.32248801305598	-10.20040723915311	-9.884472085466296	42.89152672297893	0.7485983625231161	0	0	0	37.32248801305598	-10.20040723915311	-9.884472085466296	42.89152672297893	0.7485983625231161	0	0	0	-7.183098220373473	-2.349906864604799	-4.32431223986581	19.85081018638278	-0.4487325048767685	2.891846749583756	45.67993855523183	131.702093879964	0	0	12.63187101424927	-8.981654223662179	8.099504803360997	52.86985833068276	132.2498802259124	0	0
18.75999999999969	-6.277794242520107	-4.273823725120248	29.69122078080472	0	0.9399999999999999	0	37.32452037725536	-10.20022403578807	-9.884539849218529	42.89372840628635	0.7486367891459168	0	0	0	37.32452037725536	-10.20022403578807	-9.884539849218529	42.89372840628635	0.7486367891459168	0	0	0	-7.227145419020529	-2.331171505592081	-4.328535804872565	19.94726714558567	-0.4597815351539074	2.966089865856184	45.67644983199419	131.7032573704958	0	0	12.72330102564117	-8.79729573603208	8.240275969539599	52.69893154483339	132.119478456715	0	0
